<?xml version="1.0" encoding="utf-8"?>
<!-- Generator: Adobe Illustrator 22.0.0, SVG Export Plug-In . SVG Version: 6.00 Build 0)  -->
<svg version="1.1" id="Layer_1" xmlns="http://www.w3.org/2000/svg" xmlns:xlink="http://www.w3.org/1999/xlink" x="0px" y="0px"
	 viewBox="0 0 512 512" style="enable-background:new 0 0 512 512;" xml:space="preserve">
<style type="text/css">
	.st0{fill:#036DC4;}
	.st1{fill:#FDFDFD;}
</style>
<g>
	
		<ellipse transform="matrix(0.7071 -0.7071 0.7071 0.7071 -106.4986 256.8526)" class="st0" cx="256.8" cy="257" rx="252" ry="252"/>
	<g>
		<path class="st1" d="M177.7,229.2h-43.3c-8,0-14.6,6.6-14.6,14.6v120.1c0,8,6.6,14.6,14.6,14.6h43.3c8,0,14.6-6.6,14.6-14.6V243.8
			C192.3,235.8,185.7,229.2,177.7,229.2z"/>
		<path class="st1" d="M373.4,243.3h-2.6c12.7,0,23.1-10.4,23.1-23.1c0-12.7-10.4-23.1-23.1-23.1h-74c9.1-14.4,21.5-37.3,21.5-56
			c0-29.7-16.2-46.2-26.8-48c-10.6-1.9-18.4,3.8-21.4,12.7c-3.1,8.9,2.4,25.9,0.3,32c-3.2,9.3-19.6,21.8-41.7,50.2
			c-19.8,25.4-17,55.3-17,55.3v41v41v19.1c0,7.9,6.5,14.4,14.4,14.4h137.5c9.2,0,16.7-7.5,16.7-16.7c0-9.2-7.5-16.7-16.7-16.7h2.4
			c11.3,0,20.5-9.2,20.5-20.5c0-11.3-9.2-20.5-20.5-20.5h7.5c11.3,0,20.5-9.2,20.5-20.5C393.8,252.5,384.6,243.3,373.4,243.3z"/>
	</g>
</g>
</svg>
