<?xml version="1.0" encoding="utf-8"?>
<!-- Generator: Adobe Illustrator 22.0.0, SVG Export Plug-In . SVG Version: 6.00 Build 0)  -->
<svg version="1.1" id="Layer_1" xmlns="http://www.w3.org/2000/svg" xmlns:xlink="http://www.w3.org/1999/xlink" x="0px" y="0px"
	 viewBox="0 0 512 512" style="enable-background:new 0 0 512 512;" xml:space="preserve">
<style type="text/css">
	.st0{fill:#FFDE6E;}
	.st1{fill:#102236;}
	.st2{fill:#FF3C6E;}
</style>
<g>
	
		<ellipse transform="matrix(0.7071 -0.7071 0.7071 0.7071 -106.3811 257.1364)" class="st0" cx="257.2" cy="257" rx="252" ry="252"/>
	<path class="st1" d="M412.2,194.3l-39.8-20l39.8-20c5.9-3,8.3-10.2,5.3-16.2c-3-5.9-10.2-8.3-16.2-5.3l-59.7,30.1
		c-4.4,2.2-6.8,6.7-6.6,11.3c0,0.1,0,0.1,0,0.2c0,0.1,0,0.1,0,0.2c-0.2,4.6,2.2,9.1,6.6,11.3l59.7,30.1c1.7,0.9,3.6,1.3,5.4,1.3
		c4.4,0,8.6-2.4,10.8-6.6C420.5,204.5,418.1,197.3,412.2,194.3z"/>
	<path class="st1" d="M105.9,194.3l39.8-20l-39.8-20c-5.9-3-8.3-10.2-5.3-16.2c3-5.9,10.2-8.3,16.2-5.3l59.7,30.1
		c4.4,2.2,6.8,6.7,6.6,11.3c0,0.1,0,0.1,0,0.2c0,0.1,0,0.1,0,0.2c0.2,4.6-2.2,9.1-6.6,11.3l-59.7,30.1c-1.7,0.9-3.6,1.3-5.4,1.3
		c-4.4,0-8.6-2.4-10.8-6.6C97.6,204.5,100,197.3,105.9,194.3z"/>
	<path class="st1" d="M88,266.3C88,354.5,162.8,426,255,426c92.2,0,167-71.5,167-159.6H88z"/>
	<path class="st2" d="M404.9,336.8c-40.6-17.9-92.9-28.7-149.9-28.7s-109.2,10.8-149.9,28.7C132.4,389.6,189.2,426,255,426
		C320.8,426,377.6,389.6,404.9,336.8z"/>
</g>
</svg>
