<?xml version="1.0" encoding="utf-8"?>
<!-- Generator: Adobe Illustrator 22.0.0, SVG Export Plug-In . SVG Version: 6.00 Build 0)  -->
<svg version="1.1" id="Layer_1" xmlns="http://www.w3.org/2000/svg" xmlns:xlink="http://www.w3.org/1999/xlink" x="0px" y="0px"
	 viewBox="0 0 512 512" style="enable-background:new 0 0 512 512;" xml:space="preserve">
<style type="text/css">
	.st0{fill:#FF3C6E;}
	.st1{fill:#FDFDFD;}
</style>
<g>
	<ellipse transform="matrix(0.7071 -0.7071 0.7071 0.7071 -106.4389 256.9967)" class="st0" cx="257" cy="257" rx="250" ry="250"/>
	<path class="st1" d="M403.3,222c0-49-37.8-84.1-76.4-84.1c-32.5,0-61.5,21.7-69.9,51.5c-8.4-29.8-37.4-51.5-69.9-51.5
		c-38.6,0-76.4,35-76.4,84.1c0,74.3,114,159.4,142.1,168.3c0.5,0.2,1.1,0.4,1.7,0.5c0.9,0.2,1.7,0.3,2.3,0.3c0.1,0,0.1,0,0.2,0
		c0.1,0,0.1,0,0.2,0c0.6,0,1.4-0.1,2.3-0.3c0.6-0.1,1.1-0.3,1.7-0.5C289.3,381.3,403.3,296.3,403.3,222z"/>
</g>
</svg>
