<?xml version="1.0" encoding="utf-8"?>
<!-- Generator: Adobe Illustrator 22.0.0, SVG Export Plug-In . SVG Version: 6.00 Build 0)  -->
<svg version="1.1" xmlns="http://www.w3.org/2000/svg" xmlns:xlink="http://www.w3.org/1999/xlink" x="0px" y="0px"
	 viewBox="0 0 512 512" style="enable-background:new 0 0 512 512;" xml:space="preserve">
<g id="Layer_1">
	<path d="M512,256C512,114.5,397.5,0,256,0C114.5,0,0,114.5,0,256c0,140.2,113.5,256,256,256C397.9,512,512,396.9,512,256z M256,30
		c124.6,0,226,101.4,226,226c0,45.6-13.6,89.4-38.7,126.5c-101-108.6-273.4-108.8-374.6,0C43.6,345.4,30,301.6,30,256
		C30,131.4,131.4,30,256,30z M87.4,406.5c89.8-100.7,247.4-100.7,337.2,0C334.5,507.3,177.5,507.3,87.4,406.5z"/>
	<path d="M256,271c49.6,0,90-40.4,90-90v-30c0-49.6-40.4-90-90-90s-90,40.4-90,90v30C166,230.6,206.4,271,256,271z M196,151
		c0-33.1,26.9-60,60-60s60,26.9,60,60v30c0,33.1-26.9,60-60,60s-60-26.9-60-60V151z"/>
</g>
<g id="Layer_2">
	<path d="M268,248h-22c-33,0-60-27-60-60v-47c0-33,27-60,60-60h22c33,0,60,27,60,60v47C328,221,301,248,268,248z"/>
	<polygon points="73,406.5 125,363 204,331 266,318 328,331 389,362.3 430,400 430,427 362,477 238,501 119,457 	"/>
</g>
</svg>
