<?xml version="1.0" encoding="utf-8"?>
<!-- Generator: Adobe Illustrator 18.1.1, SVG Export Plug-In . SVG Version: 6.00 Build 0)  -->
<svg version="1.1" id="Layer_1" xmlns="http://www.w3.org/2000/svg" xmlns:xlink="http://www.w3.org/1999/xlink" x="0px" y="0px"
	 viewBox="0 0 200 200" enable-background="new 0 0 200 200" xml:space="preserve">
<path d="M167.89,13.49H31.94c-14.22,0-25.78,11.55-25.78,25.78v83.2c0,14.19,11.52,25.72,25.69,25.78v37.74l54.25-37.74h81.79
	c14.22,0,25.78-11.55,25.78-25.78v-83.2C193.67,25.04,182.08,13.49,167.89,13.49z M182.67,122.46c0,8.15-6.63,14.78-14.78,14.78
	H82.64l-39.82,27.71v-27.71H31.91c-8.15,0-14.78-6.63-14.78-14.78v-83.2c0-8.15,6.63-14.78,14.78-14.78h135.95
	c8.15,0,14.78,6.63,14.78,14.78v83.2H182.67z"/>
</svg>
