<?xml version="1.0" encoding="utf-8"?>
<!-- Generator: Adobe Illustrator 22.0.0, SVG Export Plug-In . SVG Version: 6.00 Build 0)  -->
<svg version="1.1" id="Capa_1" xmlns="http://www.w3.org/2000/svg" xmlns:xlink="http://www.w3.org/1999/xlink" x="0px" y="0px"
	 viewBox="0 0 512 512" style="enable-background:new 0 0 512 512;" xml:space="preserve">
<style type="text/css">
	.st0{display:none;}
	.st1{display:inline;}
	.st2{fill:none;stroke:#000000;stroke-width:21;stroke-miterlimit:10;}
</style>
<path d="M437,61H75C33.6,61,0,94.6,0,136v240c0,41.4,33.6,75,75,75h362c41.4,0,75-33.6,75-75V136C512,94.6,478.4,61,437,61z
	 M338.9,268.7l-120,75c-2.4,1.5-5.2,2.3-8,2.3c-2.5,0-5-0.6-7.3-1.9c-4.8-2.6-7.7-7.7-7.7-13.1V181c0-5.5,3-10.5,7.7-13.1
	c4.8-2.6,10.6-2.5,15.2,0.4l120,75c4.4,2.7,7,7.5,7,12.7S343.3,266,338.9,268.7z"/>
<g class="st0">
	<path class="st1" d="M437,61H75C33.6,61,0,94.6,0,136v240c0,41.4,33.6,75,75,75h362c41.4,0,75-33.6,75-75V136
		C512,94.6,478.4,61,437,61z"/>
	<path class="st1" d="M339,243.3l-120-75c-4.6-2.9-10.5-3-15.2-0.4c-4.8,2.6-7.7,7.7-7.7,13.1v150c0,5.5,3,10.5,7.7,13.1
		c2.3,1.3,4.8,1.9,7.3,1.9c2.8,0,5.5-0.8,8-2.3l120-75c4.4-2.7,7-7.5,7-12.7S343.3,246,339,243.3z"/>
</g>
<line class="st2" x1="113" y1="472" x2="397" y2="472"/>
</svg>
