<?xml version="1.0" encoding="utf-8"?>
<!-- Generator: Adobe Illustrator 18.1.1, SVG Export Plug-In . SVG Version: 6.00 Build 0)  -->
<svg version="1.1" id="Capa_1" xmlns="http://www.w3.org/2000/svg" xmlns:xlink="http://www.w3.org/1999/xlink" x="0px" y="0px"
	 viewBox="0 0 200 200" enable-background="new 0 0 200 200" xml:space="preserve">
<path d="M100,0C44.86,0,0,44.86,0,100s44.86,100,100,100s100-44.86,100-100S155.14,0,100,0z M179.03,133
	c-9.83,23.46-29.82,41.65-54.43,49.04c0.44-0.82,0.87-1.65,1.28-2.49c2.11-4.28,4.34-7.3,8.07-10.31c2.85-2.31,8.46-5.88,7.54-10.38
	c-0.66-3.25-4.38-4.59-7.18-5.38c-4.45-1.26-9.22-1.59-13.81-1.91c-3.98-0.28-8.11-0.14-12-1.13c-5.81-1.48-7.13-6.51-7.49-11.82
	c-0.33-4.72-0.26-9.57-2.58-13.83c-2.99-5.49-9.86-7.06-15.56-7.58c-4.81-0.44-9.62-0.21-14.4-1.01c-4.6-0.77-8.97-2.39-13.69-2.21
	c-6.13,0.24-8.88,4.39-11.49,9.19c-1.29,2.37-9.44,20.61-14.23,24.7c-8.26-12.19-13.45-26.61-14.49-42.15
	c0.68-0.18,1.35-0.43,2.03-0.77c2.66-1.32,4.53-3.71,7.43-4.66c2.76-0.9,6.34-0.1,9.16,0.17c2.81,0.27,5.66,0.57,8.48,0.18
	c5.61-0.77,8.59-4.65,9.49-10.06c0.53-3.23,0.12-6.49,0.21-9.74c0.15-5.07,3.48-6.89,8.07-7.33c8.67-0.81,28.88,1.48,29.29-11.86
	c0.17-5.71-6.62-8.65-11.04-10.17c-8.61-2.96-18.02-1.93-26.83-3.99c-4.69-1.09-8.64-4.02-11.95-7.47
	c15.56-15.85,37.2-25.7,61.11-25.7c5.11,0,10.12,0.45,14.99,1.32c-2.49,0.46-4.94,1.12-7.33,2.08
	c-12.61,5.08-12.99,19.39-7.48,30.13c3.42,6.66,8.95,12.25,14.73,16.89c5.6,4.49,11.71,7.15,17.92,10.56
	c8.23,4.53,7.24,16.35,9.32,24.31c1.76,6.72,5.98,12.38,12.62,14.71c4.02,1.4,8.74,0.31,12.26,3.11c3.02,2.4,3.73,7.31,5.46,10.61
	C174.22,131.37,176.51,132.75,179.03,133z"/>
</svg>
