<?xml version="1.0" encoding="utf-8"?>
<!-- Generator: Adobe Illustrator 18.1.1, SVG Export Plug-In . SVG Version: 6.00 Build 0)  -->
<svg version="1.1" id="Capa_1" xmlns="http://www.w3.org/2000/svg" xmlns:xlink="http://www.w3.org/1999/xlink" x="0px" y="0px"
	 viewBox="0 0 200 200" enable-background="new 0 0 200 200" xml:space="preserve">
<g>
	<g>
		<path d="M198.43,140.27c-0.18-1.17-0.47-2.33-0.84-3.45c-3.59-10-13.85-15.99-24.33-14.21c-3.47,0.55-6.72-1.82-7.27-5.29
			l-5.27-33.74c-4.33-28.55-24.95-51.93-52.74-59.78C105.46,8.34,90.88-2.15,75.41,0.38C60.15,2.87,49.69,17.12,51.9,32.43
			c-23.95,15.16-36.59,43.1-32.16,71.1l5.65,35.91c0.52,3.46-1.84,6.69-5.29,7.27c-10.52,1.52-18.44,10.36-18.8,20.99
			c-0.12,11.79,9.34,21.45,21.13,21.57c0.07,0,0.15,0,0.22,0c1.11,0,2.22-0.09,3.32-0.26l21.91-3.44
			c7.62,13.6,24.83,18.45,38.43,10.83c7.19-4.02,12.25-10.99,13.88-19.06l80.46-12.66C192.3,162.84,200.26,151.92,198.43,140.27z
			 M77.89,15.14c0.74-0.12,1.49-0.18,2.24-0.18c4.77,0.03,9.21,2.43,11.85,6.41h-0.34c-2.65-0.08-5.31,0-7.96,0.23
			c-2.79,0.27-5.55,0.69-8.29,1.28c-0.59,0.12-1.17,0.29-1.76,0.43c-2.24,0.53-4.44,1.15-6.6,1.88c-0.21,0.06-0.43,0.1-0.65,0.18
			C67.89,20,72.38,16.01,77.89,15.14z M72.48,185.77c-3.02,0-5.95-0.96-8.38-2.76l19.93-3.12
			C81.35,183.58,77.05,185.77,72.48,185.77z M183.41,147.29c-1.09,1.79-2.91,3.01-4.98,3.33L92.7,164.1l-41.65,6.55l-27.26,4.27
			c-2.06,0.34-4.17-0.26-5.75-1.64c-1.61-1.37-2.53-3.39-2.5-5.51c0.31-3.65,3.14-6.58,6.77-7.02c11.21-1.8,18.86-12.31,17.13-23.53
			l-5.64-35.91c-3.7-23.69,7.81-47.17,28.79-58.76c0.12-0.04,0.24-0.09,0.36-0.14c6.81-3.69,14.3-5.95,22.02-6.65
			c2.34-0.21,4.69-0.25,7.03-0.14l1.17,0.06c2.43,0.15,4.84,0.45,7.22,0.91c0.08,0,0.15,0,0.23,0c24.08,5.21,42.41,24.8,46,49.18
			l5.31,33.74c1.76,11.23,12.3,18.91,23.53,17.14c3.59-0.7,7.18,1.21,8.6,4.58C184.76,143.26,184.52,145.47,183.41,147.29z"/>
	</g>
</g>
</svg>
