<?xml version="1.0" encoding="utf-8"?>
<!-- Generator: Adobe Illustrator 18.1.1, SVG Export Plug-In . SVG Version: 6.00 Build 0)  -->
<svg version="1.1" id="Capa_1" xmlns="http://www.w3.org/2000/svg" xmlns:xlink="http://www.w3.org/1999/xlink" x="0px" y="0px"
	 viewBox="0 0 200 200" enable-background="new 0 0 200 200" xml:space="preserve">
<path d="M170.7,23.83H29.3C13.12,23.83,0,36.95,0,53.13v93.75c0,16.17,13.12,29.3,29.3,29.3H170.7c16.17,0,29.3-13.13,29.3-29.3
	V53.13C200,36.95,186.88,23.83,170.7,23.83z M132.38,104.96l-46.88,29.3c-0.94,0.59-2.03,0.9-3.13,0.9c-0.98,0-1.95-0.23-2.85-0.74
	c-1.88-1.02-3.01-3.01-3.01-5.12V70.7c0-2.15,1.17-4.1,3.01-5.12c1.88-1.02,4.14-0.98,5.94,0.16l46.88,29.3
	c1.72,1.05,2.73,2.93,2.73,4.96S134.1,103.91,132.38,104.96z"/>
<g display="none">
	<path display="inline" d="M170.7,23.83H29.3C13.12,23.83,0,36.95,0,53.13v93.75c0,16.17,13.12,29.3,29.3,29.3H170.7
		c16.17,0,29.3-13.13,29.3-29.3V53.13C200,36.95,186.88,23.83,170.7,23.83z"/>
	<path display="inline" d="M132.42,95.04l-46.88-29.3c-1.8-1.13-4.1-1.17-5.94-0.16c-1.88,1.02-3.01,3.01-3.01,5.12v58.59
		c0,2.15,1.17,4.1,3.01,5.12c0.9,0.51,1.88,0.74,2.85,0.74c1.09,0,2.15-0.31,3.13-0.9l46.88-29.3c1.72-1.05,2.73-2.93,2.73-4.96
		S134.1,96.09,132.42,95.04z"/>
</g>
<line fill="none" stroke="#000000" stroke-width="21" stroke-miterlimit="10" x1="44.14" y1="184.38" x2="155.08" y2="184.38"/>
</svg>
