<?xml version="1.0" encoding="utf-8"?>
<!-- Generator: Adobe Illustrator 18.1.1, SVG Export Plug-In . SVG Version: 6.00 Build 0)  -->
<svg version="1.1" id="Layer_1" xmlns="http://www.w3.org/2000/svg" xmlns:xlink="http://www.w3.org/1999/xlink" x="0px" y="0px"
	 viewBox="92 -92 384 384" enable-background="new 92 -92 384 384" xml:space="preserve">
<path d="M460,62.67H108c-8.83,0-16-7.17-16-16s7.17-16,16-16h352c8.83,0,16,7.17,16,16S468.83,62.67,460,62.67z"/>
<path d="M460-60H108c-8.83,0-16-7.17-16-16s7.17-16,16-16h352c8.83,0,16,7.17,16,16S468.83-60,460-60z"/>
<path d="M460,185.33H108c-8.83,0-16-7.17-16-16s7.17-16,16-16h352c8.83,0,16,7.17,16,16S468.83,185.33,460,185.33z"/>
</svg>
