<?xml version="1.0" encoding="utf-8"?>
<!-- Generator: Adobe Illustrator 18.1.1, SVG Export Plug-In . SVG Version: 6.00 Build 0)  -->
<svg version="1.1" id="Capa_1" xmlns="http://www.w3.org/2000/svg" xmlns:xlink="http://www.w3.org/1999/xlink" x="0px" y="0px"
	 viewBox="0 0 200 200" enable-background="new 0 0 200 200" xml:space="preserve">
<g>
	<g>
		<path d="M198.44,140.25c-0.21-1.13-0.46-2.29-0.83-3.42c-3.59-10.01-13.85-16.02-24.32-14.22c-3.46,0.54-6.71-1.84-7.26-5.3
			l-5.26-33.7c-4.38-28.57-25.02-51.97-52.8-59.81C105.44,8.34,90.88-2.13,75.41,0.37c-15.26,2.5-25.73,16.77-23.52,32.07
			c-23.94,15.14-36.62,43.08-32.16,71.11l5.67,35.91c0.5,3.46-1.84,6.71-5.3,7.26c-10.51,1.5-18.43,10.34-18.81,20.98
			c-0.13,11.8,9.34,21.44,21.15,21.56c0.08,0,0.17,0,0.21,0c1.13,0,2.21-0.08,3.34-0.25l21.9-3.46
			c7.63,13.6,24.82,18.48,38.45,10.84c7.17-4.05,12.26-10.97,13.89-19.06l80.45-12.68C192.31,162.82,200.28,151.89,198.44,140.25z
			 M72.45,185.8c-3,0-5.96-0.96-8.38-2.75L84,179.92C81.33,183.63,77.03,185.8,72.45,185.8z M91.63,21.43
			c-2.67-0.08-5.3,0-7.97,0.21c-2.79,0.25-5.55,0.71-8.3,1.29c-0.58,0.13-1.17,0.29-1.75,0.42c-2.25,0.54-4.42,1.13-6.59,1.88
			c-0.21,0.04-0.46,0.08-0.67,0.17c1.5-5.38,6.01-9.38,11.51-10.22c0.75-0.13,1.5-0.17,2.25-0.17c4.75,0.04,9.22,2.42,11.84,6.42
			H91.63z"/>
	</g>
</g>
</svg>
