<?xml version="1.0" encoding="utf-8"?>
<!-- Generator: Adobe Illustrator 18.1.1, SVG Export Plug-In . SVG Version: 6.00 Build 0)  -->
<svg version="1.1" id="Capa_1" xmlns="http://www.w3.org/2000/svg" xmlns:xlink="http://www.w3.org/1999/xlink" x="0px" y="0px"
	 viewBox="0 0 200 200" enable-background="new 0 0 200 200" xml:space="preserve">
<g>
	<path d="M132.42,95.04l-46.88-29.3c-1.8-1.13-4.1-1.17-5.94-0.16c-1.88,1.02-3.01,3.01-3.01,5.12v58.59c0,2.15,1.17,4.1,3.01,5.12
		c0.9,0.51,1.88,0.74,2.85,0.74c1.09,0,2.15-0.31,3.09-0.9l46.88-29.3c1.72-1.05,2.73-2.93,2.73-4.96S134.1,96.09,132.42,95.04
		L132.42,95.04z M88.28,118.71V81.25l29.96,18.71L88.28,118.71z"/>
	<path d="M170.7,23.83H29.3C13.12,23.83,0,36.95,0,53.13v93.75c0,16.17,13.12,29.3,29.3,29.3H170.7c16.17,0,29.3-13.13,29.3-29.3
		V53.13C200,36.95,186.88,23.83,170.7,23.83z M188.28,146.88c0,9.69-7.89,17.58-17.58,17.58H29.3c-9.69,0-17.58-7.89-17.58-17.58
		V53.13c0-9.69,7.89-17.58,17.58-17.58H170.7c9.69,0,17.58,7.89,17.58,17.58V146.88z"/>
</g>
<line fill="none" stroke="#000000" stroke-width="21" stroke-miterlimit="10" x1="44.14" y1="184.38" x2="155.08" y2="184.38"/>
<polygon points="83.59,76.56 83.59,123.44 125.39,100 "/>
</svg>
