<?xml version="1.0" encoding="utf-8"?>
<!-- Generator: Adobe Illustrator 18.1.1, SVG Export Plug-In . SVG Version: 6.00 Build 0)  -->
<svg version="1.1" id="Capa_1" xmlns="http://www.w3.org/2000/svg" xmlns:xlink="http://www.w3.org/1999/xlink" x="0px" y="0px"
	 viewBox="156 -156 512 512" enable-background="new 156 -156 512 512" xml:space="preserve">
<path d="M649.25,54.74c24.99,24.99,24.99,65.52,0,90.51s-65.52,24.99-90.51,0c-24.99-24.99-24.99-65.52,0-90.51
	C583.74,29.75,624.26,29.75,649.25,54.74"/>
<path d="M457.26,54.74c24.99,24.99,24.99,65.52,0,90.51c-24.99,24.99-65.52,24.99-90.51,0c-24.99-24.99-24.99-65.52,0-90.51
	C391.74,29.75,432.26,29.75,457.26,54.74"/>
<path d="M265.26,54.74c24.99,24.99,24.99,65.52,0,90.51s-65.52,24.99-90.51,0s-24.99-65.52,0-90.51S240.26,29.75,265.26,54.74"/>
</svg>
