<?xml version="1.0" encoding="utf-8"?>
<!-- Generator: Adobe Illustrator 18.1.1, SVG Export Plug-In . SVG Version: 6.00 Build 0)  -->
<svg version="1.1" id="Capa_1" xmlns="http://www.w3.org/2000/svg" xmlns:xlink="http://www.w3.org/1999/xlink" x="0px" y="0px"
	 viewBox="0 0 200 200" enable-background="new 0 0 200 200" xml:space="preserve">
<g>
	<path d="M191.37,135.97c4.1-5.23,6.06-10.83,5.81-16.6c-0.25-6.36-3.09-11.33-5.44-14.39c2.72-6.78,3.76-17.44-5.31-25.72
		c-6.65-6.06-17.94-8.78-33.58-8.03c-11,0.5-20.2,2.55-20.58,2.63h-0.04c-2.09,0.38-4.31,0.84-6.57,1.34
		c-0.17-2.68,0.29-9.33,5.23-24.3c5.86-17.82,5.52-31.45-1.09-40.57C122.87,0.75,111.78,0,108.52,0c-3.14,0-6.02,1.3-8.07,3.68
		c-4.64,5.4-4.1,15.35-3.51,19.95c-5.52,14.81-21,51.11-34.09,61.19c-0.25,0.17-0.46,0.38-0.67,0.59c-3.85,4.06-6.44,8.45-8.2,12.3
		c-2.47-1.34-5.27-2.09-8.28-2.09H20.19c-9.62,0-17.4,7.82-17.4,17.4v67.96c0,9.62,7.82,17.4,17.4,17.4H45.7
		c3.72,0,7.19-1.17,10.04-3.18l9.83,1.17c1.51,0.21,28.27,3.6,55.75,3.05c4.98,0.38,9.66,0.59,14.01,0.59
		c7.49,0,14.01-0.59,19.45-1.76c12.8-2.72,21.54-8.16,25.97-16.14c3.39-6.11,3.39-12.17,2.84-16.02c8.32-7.53,9.79-15.85,9.49-21.71
		C192.92,140.99,192.17,138.1,191.37,135.97z M20.19,187.08c-3.39,0-6.11-2.76-6.11-6.11v-68.01c0-3.39,2.76-6.11,6.11-6.11H45.7
		c3.39,0,6.11,2.76,6.11,6.11v67.96c0,3.39-2.76,6.11-6.11,6.11H20.19V187.08z M180.67,131.07c-1.76,1.84-2.09,4.64-0.75,6.82
		c0,0.04,1.71,2.97,1.92,6.98c0.29,5.48-2.34,10.33-7.86,14.47c-1.97,1.51-2.76,4.1-1.92,6.44c0,0.04,1.8,5.56-1.13,10.79
		c-2.8,5.02-9.03,8.62-18.49,10.62c-7.57,1.63-17.86,1.92-30.49,0.92c-0.17,0-0.38,0-0.59,0c-26.89,0.59-54.08-2.93-54.37-2.97
		h-0.04l-4.22-0.5c0.25-1.17,0.38-2.43,0.38-3.68v-68.01c0-1.8-0.29-3.56-0.79-5.19c0.75-2.8,2.84-9.03,7.78-14.35
		c18.78-14.89,37.14-65.12,37.93-67.29c0.33-0.88,0.42-1.84,0.25-2.8c-0.71-4.68-0.46-10.41,0.54-12.13
		c2.22,0.04,8.2,0.67,11.79,5.65c4.27,5.9,4.1,16.44-0.5,30.41c-7.03,21.29-7.61,32.5-2.05,37.43c2.76,2.47,6.44,2.59,9.12,1.63
		c2.55-0.59,4.98-1.09,7.28-1.46c0.17-0.04,0.38-0.08,0.54-0.13c12.84-2.8,35.84-4.52,43.83,2.76c6.78,6.19,1.97,14.39,1.42,15.27
		c-1.55,2.34-1.09,5.4,1,7.28c0.04,0.04,4.43,4.18,4.64,9.74C186.06,123.5,184.31,127.31,180.67,131.07z"/>
</g>
</svg>
