<?xml version="1.0" encoding="utf-8"?>
<!-- Generator: Adobe Illustrator 18.1.1, SVG Export Plug-In . SVG Version: 6.00 Build 0)  -->
<svg version="1.1" id="Layer_1" xmlns="http://www.w3.org/2000/svg" xmlns:xlink="http://www.w3.org/1999/xlink" x="0px" y="0px"
	 viewBox="156 -156 512 512" enable-background="new 156 -156 512 512" xml:space="preserve">
<path fill="#4CAF50" d="M387.1,289.2c-46.7,0-84.6-38-84.6-84.6V-78.9l-96.2,22c-23.8,6.2-38,30.8-31.8,54.8L257,306
	c5.5,19.9,23.8,33.1,43.4,33.1c3.7,0,7.4-0.5,11.1-1.4l200.8-48.4L387.1,289.2L387.1,289.2z"/>
<path fill="#4CAF50" d="M431.9,40.2c22,0,39.8-17.9,39.8-39.8s-17.9-39.8-39.8-39.8c-22,0-39.8,17.9-39.8,39.8
	S409.9,40.2,431.9,40.2z"/>
<path fill="#4CAF50" d="M651-79.3c0-33-26.7-59.8-59.8-59.8H392.1c-33,0-59.8,26.7-59.8,59.8v278.8c0,33,26.7,59.8,59.8,59.8h199.2
	c33,0,59.8-26.7,59.8-59.8V-79.3z M392.1-99.2h199.2c11,0,19.9,8.9,19.9,19.9V49L596,33.9c-13.7-13.7-35.8-13.7-49.4,0l-94.8,94.8
	l-25.1-25.1c-13.7-13.7-35.8-13.7-49.4,0l-5.2,5.2v-188C372.2-90.3,381.1-99.2,392.1-99.2z"/>
</svg>
