<?xml version="1.0" encoding="utf-8"?>
<!-- Generator: Adobe Illustrator 18.1.1, SVG Export Plug-In . SVG Version: 6.00 Build 0)  -->
<svg version="1.1" id="Layer_1" xmlns="http://www.w3.org/2000/svg" xmlns:xlink="http://www.w3.org/1999/xlink" x="0px" y="0px"
	 viewBox="0 0 200 200" enable-background="new 0 0 200 200" xml:space="preserve">
<path fill="#4CAF50" d="M90.24,173.91c-18.24,0-33.05-14.84-33.05-33.05V30.12l-37.58,8.59C10.32,41.13,4.78,50.74,7.2,60.12
	l32.23,120.35c2.15,7.77,9.3,12.93,16.95,12.93c1.45,0,2.89-0.2,4.34-0.55l78.44-18.91L90.24,173.91L90.24,173.91z"/>
<path fill="#4CAF50" d="M107.74,76.64c8.59,0,15.55-6.99,15.55-15.55s-6.99-15.55-15.55-15.55c-8.59,0-15.55,6.99-15.55,15.55
	S99.15,76.64,107.74,76.64z"/>
<path fill="#4CAF50" d="M193.33,29.96c0-12.89-10.43-23.36-23.36-23.36H92.2c-12.89,0-23.36,10.43-23.36,23.36v108.91
	c0,12.89,10.43,23.36,23.36,23.36h77.81c12.89,0,23.36-10.43,23.36-23.36V29.96H193.33z M92.2,22.19h77.81
	c4.3,0,7.77,3.48,7.77,7.77v50.12l-5.94-5.9c-5.35-5.35-13.98-5.35-19.3,0l-37.03,37.03l-9.8-9.8c-5.35-5.35-13.98-5.35-19.3,0
	l-2.03,2.03V30C84.42,25.66,87.9,22.19,92.2,22.19z"/>
</svg>
