<?xml version="1.0" encoding="utf-8"?>
<!-- Generator: Adobe Illustrator 18.1.1, SVG Export Plug-In . SVG Version: 6.00 Build 0)  -->
<svg version="1.1" id="bold" xmlns="http://www.w3.org/2000/svg" xmlns:xlink="http://www.w3.org/1999/xlink" x="0px" y="0px"
	 viewBox="156 -156 512 512" enable-background="new 156 -156 512 512" xml:space="preserve">
<g>
	<path fill="#FF5722" d="M644.6,48.3c-9.1,0-18.2-2.9-25.8-8.1v163.1H205.3V-24H381v-41.3H200.1c-19.8,0-36.2,16.3-36.2,36.2v279.1
		c0,19.8,16.3,36.2,36.2,36.2h423.8c19.8,0,36.2-16.3,36.2-36.2V45.6C655.1,47.5,649.9,48.3,644.6,48.3z"/>
	<path fill="#FF5722" d="M491.7,330.4c-27.2-27.2-28-53.5-28-54.8c0-5.7-4.7-10.3-10.3-10.3h-83.1c-5.7,0-10.3,4.7-10.3,10.4
		c0,1.1-0.4,27.4-27.6,54.6c-2.9,2.9-3.8,7.4-2.2,11.3c1.6,3.9,5.3,6.4,9.5,6.4h144.7c4.2,0,8-2.5,9.6-6.4
		C495.5,337.8,494.6,333.4,491.7,330.4L491.7,330.4z"/>
	<circle fill="#FF5722" cx="370.7" cy="79.3" r="41.3"/>
	<path fill="#FF5722" d="M453.3,198.2v5.2H288v-5.2c0-31.4,25.4-56.8,56.8-56.8h51.7C427.9,141.3,453.3,166.8,453.3,198.2z"/>
</g>
<path fill="#FF5722" d="M644.6,17.3c-3.3,0-6.6-1.1-9.3-3.1l-37.5-28.2c-2.4,17.6-17.5,31.3-35.8,31.3H448.2
	c-19.9,0-36.2-16.2-36.2-36.2V-117c0-14.3,9.5-31,36.2-31h113.7c19.3,0,35.1,15.1,36.1,34.1l36.7-30.5c4.6-3.9,11-4.7,16.5-2.1
	c5.5,2.6,8.9,8,8.9,14V1.8c0,5.9-3.3,11.3-8.6,13.9C649.3,16.8,646.9,17.3,644.6,17.3z"/>
</svg>
