<?xml version="1.0" encoding="utf-8"?>
<!-- Generator: Adobe Illustrator 18.1.1, SVG Export Plug-In . SVG Version: 6.00 Build 0)  -->
<svg version="1.1" id="bold" xmlns="http://www.w3.org/2000/svg" xmlns:xlink="http://www.w3.org/1999/xlink" x="0px" y="0px"
	 viewBox="0 0 200 200" enable-background="new 0 0 200 200" xml:space="preserve">
<path fill="#7B1FA2" d="M184.6,26.6H16.7C8.8,26.6,2.4,33,2.4,40.9v110.5c0,7.9,6.4,14.3,14.3,14.3h62.7c-1,4.1-3.5,10.7-10.3,17.6
	c-1.2,1.2-1.5,2.9-0.9,4.5s2.1,2.5,3.8,2.5h57.3c1.6,0,3.2-1,3.8-2.5s0.3-3.3-0.9-4.5c-6.8-6.8-9.4-13.5-10.4-17.6h62.8
	c7.9,0,14.3-6.4,14.3-14.3V40.9C199,33,192.5,26.6,184.6,26.6z M182.6,133.1H18.8V43h163.8V133.1L182.6,133.1z"/>
<path fill="#7B1FA2" d="M90.4,116.7c-1,0-2.1-0.3-3-0.8c-2-1.1-3.1-3.1-3.1-5.4v-45c0-2.2,1.2-4.3,3.1-5.4c2-1.1,4.3-1.1,6.2,0.1
	l36.8,22.5c1.8,1.1,2.9,3.1,2.9,5.2s-1.1,4.1-2.9,5.3l-36.8,22.5C92.7,116.4,91.5,116.7,90.4,116.7z"/>
</svg>
