<?xml version="1.0" encoding="utf-8"?>
<!-- Generator: Adobe Illustrator 18.1.1, SVG Export Plug-In . SVG Version: 6.00 Build 0)  -->
<svg version="1.1" id="bold" xmlns="http://www.w3.org/2000/svg" xmlns:xlink="http://www.w3.org/1999/xlink" x="0px" y="0px"
	 viewBox="0 0 200 200" enable-background="new 0 0 200 200" xml:space="preserve">
<g>
	<path fill="#FF5722" d="M190.86,79.81c-3.55,0-7.11-1.13-10.08-3.16v63.71H19.26V51.56h68.63V35.43H17.23
		c-7.73,0-14.14,6.37-14.14,14.14V158.6c0,7.73,6.37,14.14,14.14,14.14h165.55c7.73,0,14.14-6.37,14.14-14.14V78.75
		C194.96,79.49,192.93,79.81,190.86,79.81z"/>
	<path fill="#FF5722" d="M131.13,190c-10.63-10.63-10.94-20.9-10.94-21.41c0-2.23-1.84-4.02-4.02-4.02H83.71
		c-2.23,0-4.02,1.84-4.02,4.06c0,0.43-0.16,10.7-10.78,21.33c-1.13,1.13-1.48,2.89-0.86,4.41c0.63,1.52,2.07,2.5,3.71,2.5h56.52
		c1.64,0,3.13-0.98,3.75-2.5C132.62,192.89,132.27,191.17,131.13,190L131.13,190z"/>
	<circle fill="#FF5722" cx="83.87" cy="91.92" r="16.13"/>
	<path fill="#FF5722" d="M116.13,138.36v2.03H51.56v-2.03c0-12.27,9.92-22.19,22.19-22.19h20.2
		C106.21,116.13,116.13,126.1,116.13,138.36z"/>
</g>
<path fill="#FF5722" d="M190.86,67.7c-1.29,0-2.58-0.43-3.63-1.21l-14.65-11.02c-0.94,6.88-6.84,12.23-13.98,12.23h-44.45
	c-7.77,0-14.14-6.33-14.14-14.14V15.24c0-5.59,3.71-12.11,14.14-12.11h44.41c7.54,0,13.71,5.9,14.1,13.32l14.34-11.91
	c1.8-1.52,4.3-1.84,6.45-0.82c2.15,1.02,3.48,3.13,3.48,5.47v52.46c0,2.3-1.29,4.41-3.36,5.43C192.7,67.5,191.76,67.7,190.86,67.7z"
	/>
</svg>
