<?xml version="1.0" encoding="utf-8"?>
<!-- Generator: Adobe Illustrator 18.1.1, SVG Export Plug-In . SVG Version: 6.00 Build 0)  -->
<svg version="1.1" id="Layer_1" xmlns="http://www.w3.org/2000/svg" xmlns:xlink="http://www.w3.org/1999/xlink" x="0px" y="0px"
	 viewBox="0 70 200 55" enable-background="new 0 70 200 55" xml:space="preserve">
<g>
	<path fill="#036DC4" d="M94.4,81.05c2.8-0.5,5.5-0.9,8.4-1.4c0,4.4,0,8.6,0,12.9c1.1-0.2,2.2-0.5,3.3-0.7c2.7-0.3,5.4-0.4,8,0.5
		c2.5,0.8,3.9,2.6,4.3,5.1c0.2,1.4,0.3,2.8,0.4,4.2c0,2.8,0,5.6-0.1,8.4c-0.1,2.7-0.9,5.2-3.1,6.9c-1.5,1.2-3.2,1.7-5.1,2
		c-3.7,0.6-7.3,0.5-11,0c-1.5-0.2-3-0.4-4.5-0.6c-0.4,0-0.6-0.2-0.5-0.6c0-0.3,0-0.5,0-0.8c0-11.8,0-23.5,0-35.3
		C94.3,81.55,94.4,81.35,94.4,81.05z M102.8,112.45c1.6,0.2,3.2,0.3,4.8,0c1.7-0.3,2.5-1.2,2.6-3c0.1-2.6,0.1-5.2,0.1-7.8
		c0-1.8-0.8-2.6-2.6-2.8c-1.7-0.3-3.2,0.2-4.6,0.9c-0.2,0.1-0.3,0.4-0.3,0.6c0,2.3,0,4.7,0,7
		C102.8,108.95,102.8,110.65,102.8,112.45z"/>
	<path fill="#036DC4" d="M199,119.05c-0.6,0-1.1,0-1.5,0c-2.3,0-4.6,0-6.9,0c-0.5,0-0.8-0.2-1-0.6c-2.3-3.8-4.5-7.6-6.8-11.4
		c-0.1-0.1-0.1-0.2-0.3-0.4c0,4.2,0,8.2,0,12.3c-0.3,0-0.5,0-0.7,0c-2.4,0-4.7,0-7.1,0c-0.6,0-0.7-0.2-0.7-0.7c0-2.7,0-5.3,0-8
		c0-9.5,0-19.1,0-28.6c0-0.8,0-0.8,0.8-0.9c2.3-0.4,4.6-0.8,6.9-1.2c0.2,0,0.4,0,0.7-0.1c0,8,0,16,0,24h0.1c0.2-0.3,0.4-0.6,0.6-1
		c2.1-3.4,4.3-6.7,6.4-10.1c0.3-0.4,0.5-0.6,1.1-0.6c2.5,0,5,0,7.4,0c0.3,0,0.6,0,1,0c-0.1,0.3-0.2,0.5-0.3,0.6c-2.5,4-5,8-7.6,11.9
		c-0.3,0.4-0.3,0.7,0,1.2c2.6,4.2,5.1,8.5,7.7,12.8C198.8,118.75,198.9,118.85,199,119.05z"/>
	<path fill="#036DC4" d="M91,111.55c0,0.2,0,0.4,0,0.6c0,1.9,0,3.8,0,5.7c0,0.4-0.1,0.6-0.5,0.7c-3.8,0.8-7.6,1.1-11.5,0.9
		c-1.8-0.1-3.6-0.5-5.3-1.3c-3-1.4-4.8-3.9-5.3-7.1c-0.2-1.2-0.2-2.4-0.3-3.6c0-2.1-0.1-4.2,0-6.2c0.1-2.3,0.7-4.5,2.3-6.3
		c1.4-1.5,3.1-2.4,5.1-2.8c3.4-0.7,6.7-0.7,10,0.4c3.4,1.1,5.4,3.6,5.9,7.1c0.3,2.8,0.3,5.6,0.4,8.4c-0.4,0-0.6,0-0.9,0
		c-4.6,0-9.2,0-13.7,0c-0.5,0-0.7,0.2-0.7,0.7c0,0.4,0,0.8,0.1,1.3c0.3,1.4,1,2.2,2.5,2.3c1.7,0.1,3.5,0.2,5.2,0.1
		c2.1-0.1,4.2-0.5,6.2-0.7C90.7,111.55,90.8,111.55,91,111.55z M79.9,102.35c0.6,0,1.1,0,1.7,0c1.8,0,1.8,0,1.6-1.8
		c-0.1-1.2-0.8-2.1-2-2.3c-0.8-0.2-1.7-0.1-2.5,0c-1,0.1-1.7,0.8-2,1.8c-0.1,0.6-0.1,1.2-0.2,1.8c0,0.4,0.1,0.5,0.5,0.5
		C78,102.35,79,102.35,79.9,102.35z"/>
	<path fill="#036DC4" d="M171.8,105.55c-0.1,1.9-0.1,3.7-0.4,5.5c-0.6,4.2-3.1,6.9-7.2,7.9c-3.4,0.8-6.8,0.8-10.2-0.3
		c-3.7-1.2-5.7-3.7-6.3-7.5c-0.2-1.4-0.2-2.8-0.2-4.2c0-2-0.1-4.1,0.1-6.1c0.4-4.8,3.1-7.8,7.9-8.8c3.3-0.7,6.6-0.7,9.8,0.4
		c3.6,1.2,5.6,3.7,6.2,7.4C171.8,101.75,171.7,103.65,171.8,105.55z M163.3,105.55L163.3,105.55c0-1.3,0-2.6,0-4
		c0-1.3-0.8-2.3-2-2.7c-1-0.3-2-0.3-3-0.1c-1.4,0.3-2.3,1.3-2.3,2.6c0,2.7,0,5.4,0,8.1c0,1.3,0.8,2.3,2.1,2.6
		c0.7,0.2,1.5,0.2,2.3,0.2c1.9-0.1,3-1.3,3-3.2C163.3,107.95,163.3,106.75,163.3,105.55z"/>
	<path fill="#036DC4" d="M145.3,105.85c-0.1,1.7-0.1,3.8-0.5,5.7c-0.7,4.1-3.3,6.5-7.3,7.4c-3.2,0.7-6.5,0.7-9.6-0.2
		c-3.8-1.1-6-3.6-6.7-7.5c-0.2-0.9-0.2-1.9-0.2-2.9c0-2.2-0.1-4.5,0-6.7c0.1-2.9,1-5.5,3.2-7.4c1.5-1.3,3.3-2,5.3-2.3
		c3.2-0.5,6.4-0.5,9.6,0.6c3.5,1.2,5.4,3.8,5.9,7.4C145.2,101.85,145.2,103.65,145.3,105.85z M129.4,105.55
		C129.4,105.55,129.3,105.55,129.4,105.55c0,1.2,0,2.4,0,3.6c0,0.2,0,0.4,0,0.5c0.1,1.2,0.8,2.2,2,2.5c0.8,0.2,1.7,0.3,2.5,0.2
		c1.8-0.2,2.9-1.4,2.9-3c0-2.6,0-5.1,0-7.7c0-1.4-0.8-2.4-2.1-2.8c-1-0.3-2.1-0.3-3.1,0c-1.3,0.4-2.1,1.3-2.1,2.6
		C129.3,102.85,129.4,104.15,129.4,105.55z"/>
	<path fill="#036DC4" d="M35,117.65c-1.6,0.5-3.1,1.1-4.7,1.5c-1.9,0.4-3.8,0.5-5.6,0c-3-0.8-4.6-2.9-5.2-5.8
		c-0.3-1.4-0.3-2.9,0-4.3c0.6-2.7,2.3-4.3,4.9-4.8c1.2-0.3,2.5-0.3,3.7-0.4c1.7-0.1,3.4,0,5,0c0.5,0,0.7-0.2,0.6-0.6
		c0-0.4,0-0.8,0-1.3c0-2.2-1-2.6-2.7-2.7c-2.7-0.1-5.4-0.1-8.2-0.1c-0.2,0-0.5,0-0.8,0c0.1-0.7,0.1-1.3,0.1-1.9
		c0.2-1.6,0.3-3.2,0.5-4.8c0-0.1,0.3-0.4,0.4-0.4c3.5,0,7,0,10.5,0.1c1.1,0,2.3,0.3,3.3,0.6c3,0.9,4.5,3,4.9,6
		c0.2,1.2,0.2,2.5,0.3,3.8c0,5.3,0,10.6,0,15.9c0,0.6-0.1,0.8-0.7,0.7c-1.9,0-3.8,0-5.6,0c-0.6,0-0.7-0.2-0.8-0.7
		C35.1,118.15,35,117.85,35,117.65z M31.3,109.45L31.3,109.45c-0.6,0-1.2,0-1.9,0c-1.2,0-1.7,0.6-1.7,1.8c0,1.4,0.7,2,2,2.1
		c1.3,0.1,2.6-0.3,3.7-0.9c0.2-0.1,0.3-0.4,0.3-0.6c0-0.6,0-1.3,0-1.9c0-0.4-0.2-0.5-0.5-0.5C32.7,109.45,32,109.45,31.3,109.45z"/>
	<path fill="#036DC4" d="M20.2,78.85c0,1.7,0,3.2,0,4.7c0,0.6,0,1.3,0,1.9c0,0.4-0.1,0.5-0.5,0.5c-1.1,0-2.2,0-3.3,0
		c-0.4,0-0.8,0.1-1.1,0.1c-0.7,0.2-1.2,0.7-1.2,1.4c0,1.5,0,2.9,0,4.5c2,0,4,0,6.2,0c-0.1,1.1-0.2,2.2-0.3,3.2
		c-0.1,1.1-0.2,2.1-0.3,3.2c0,0.5-0.2,0.7-0.7,0.7c-1.6,0-3.2,0-4.9,0c0,6.7,0,13.3,0,20c-2.8,0-5.5,0-8.4,0c0-0.3-0.1-0.6-0.1-0.8
		c0-6.1,0-12.3,0-18.4c0-0.6-0.1-0.8-0.7-0.7c-1.1,0.1-2.2,0-3.4,0c0-0.3,0-0.5,0-0.7c0-1.8,0-3.6,0-5.4c0-1-0.1-0.9,0.9-0.9
		c0.9,0,1.8,0,2.7,0c0.4,0,0.5-0.2,0.5-0.6c0-1.7,0-3.3,0.1-5c0.1-2.1,0.7-4,2.3-5.5c1.2-1.1,2.6-1.7,4.2-1.9
		C14.7,78.95,17.4,78.95,20.2,78.85z"/>
	<path fill="#036DC4" d="M65.8,99.55c-1.3-0.2-2.6-0.4-3.8-0.6c-2.1-0.3-4.2-0.5-6.4-0.1c-1.3,0.3-2.1,1.1-2.2,2.5
		c-0.1,2.8-0.1,5.5,0,8.3c0,1.3,0.8,2.2,2,2.4c1.5,0.2,3.1,0.3,4.6,0.2c1.7-0.1,3.5-0.5,5.2-0.7c0.1,0,0.2,0,0.4,0
		c0,0.2,0.1,0.3,0.1,0.5c0,1.9,0,3.9,0,5.8c0,0.4-0.1,0.5-0.5,0.6c-3.1,0.7-6.3,1.1-9.4,0.9c-2.8-0.2-5.5-0.9-7.7-2.8
		c-1.8-1.6-2.9-3.8-3.1-6.2c-0.2-3-0.3-6-0.1-8.9c0.2-3.4,1.5-6.2,4.6-8.1c1.7-1,3.5-1.5,5.4-1.7c3.5-0.4,6.9,0.1,10.3,0.9
		c0.2,0,0.5,0.3,0.5,0.4C65.8,95.25,65.8,97.35,65.8,99.55z"/>
</g>
</svg>
